PathFileType	4	(X/Y/Z)	pose_F01_0-96.trc
DataRate	CameraRate	NumFrames	NumMarkers	Units	OrigDataRate	OrigDataStartFrame	OrigNumFrames
30	30	6	21	m	30	12	96
Frame#	Time	CHip			RHip			RKnee			RAnkle			RBigToe			RSmallToe			RHeel			LHip			LKnee			LAnkle			LBigToe			LSmallToe			LHeel			Neck			Nose			RShoulder			RElbow			RWrist			LShoulder			LElbow			LWrist			
		X1	Y1	Z1	X2	Y2	Z2	X3	Y3	Z3	X4	Y4	Z4	X5	Y5	Z5	X6	Y6	Z6	X7	Y7	Z7	X8	Y8	Z8	X9	Y9	Z9	X10	Y10	Z10	X11	Y11	Z11	X12	Y12	Z12	X13	Y13	Z13	X14	Y14	Z14	X15	Y15	Z15	X16	Y16	Z16	X17	Y17	Z17	X18	Y18	Z18	X19	Y19	Z19	X20	Y20	Z20	X21	Y21	Z21	
12	0.4	-0.24818889702749947	1.8693510330508691	-0.5626117299679086	-0.2619849994665865	1.8656456994424473	-0.49129834424777347	-0.27669489903935385	1.7147491148715344	-0.4849125408746427	-0.29275629158682925	1.556563569451173	-0.4336830566168926	-0.24267631025563127	1.5227508975047683	-0.4285460692708271	-0.2550577487761133	1.5280384637007975	-0.40628762524585776	-0.34858848952811816	1.5533060781926975	-0.4008680551061525	-0.2395888896706748	1.8716219465212818	-0.6186183241468313	-0.25531571225576205	1.713042069854836	-0.6167978800234104													-0.2590310488602958	2.0506570357374927	-0.5767922516576816	-0.21492732577788884	2.115134974749432	-0.5754205037791666	-0.2754196532402588	2.046490312864143	-0.49139810741351203	-0.2809605813737484	1.9503555023297916	-0.4681924312416197	-0.269700728733419	1.8736610844304094	-0.43984545068112163	-0.24133520347967802	2.055148129709546	-0.6653630142094168	-1.3130867177483674	1.8750252595869088	0.4248412329360116	-0.21769291658825357	1.8792578398809143	-0.6797540169438219
13	0.43333333333333335	-0.24818889702749947	1.8693510330508691	-0.5626117299679086	-0.2619849994665865	1.8656456994424473	-0.49129834424777347	-0.27669489903935385	1.7147491148715344	-0.4849125408746427	-0.29275629158682925	1.556563569451173	-0.4336830566168926	-0.24267631025563127	1.5227508975047683	-0.4285460692708271	-0.2550577487761133	1.5280384637007975	-0.40628762524585776	-0.34858848952811816	1.5533060781926975	-0.4008680551061525	-0.2395888896706748	1.8716219465212818	-0.6186183241468313	-0.25531571225576205	1.713042069854836	-0.6167978800234104													-0.2590310488602958	2.0506570357374927	-0.5767922516576816	-0.21492732577788884	2.115134974749432	-0.5754205037791666	-0.2754196532402588	2.046490312864143	-0.49139810741351203	-0.2809605813737484	1.9503555023297916	-0.4681924312416197	-0.269700728733419	1.8736610844304094	-0.43984545068112163	-0.24133520347967802	2.055148129709546	-0.6653630142094168	-1.3130867177483674	1.8750252595869088	0.4248412329360116	-0.21769291658825357	1.8792578398809143	-0.6797540169438219
14	0.4666666666666667	-0.24828408081019332	1.870927857844918	-0.5627906054452161	-0.2618469124178343	1.866897256932301	-0.4914591380179696	-0.27672325198913733	1.7152699666306026	-0.4848730755601857	-0.29275629158682925	1.556563569451173	-0.4336830566168926	-0.24267631025563127	1.5227508975047683	-0.4285460692708271	-0.25537533473848334	1.5281519268223445	-0.4044445047384221	-0.34858848952811816	1.5533060781926975	-0.4008680551061525	-0.23967664735281527	1.873140709331487	-0.6187606972169419	-0.2533015083269633	1.7134452466306818	-0.6189052023026401													-0.25899587971222643	2.0506370683653055	-0.5767692834574066	-0.21490214813711805	2.115131845928477	-0.57543311379796	-0.27535476054001345	2.0451621034670078	-0.4908251212440311	-0.28087240595138596	1.9487214476380148	-0.4678180374980583	-0.2685435242691468	1.8675059120550228	-0.43574452360015997	-0.24129614818851167	2.055139406278983	-0.665377237577453	-1.3047918071667093	1.8750141024824962	0.4105220293564574	-0.21769291658825357	1.8792578398809143	-0.6797540169438219
15	0.5	-0.24788707669025267	1.8689291397979602	-0.5625595160742554	-0.2596477356966523	1.8676327645304005	-0.49370660678252	-0.2760895348953928	1.71445348884686	-0.48336426237581986	-0.29275629158682925	1.556563569451173	-0.4336830566168926	-0.24267631025563127	1.5227508975047683	-0.4285460692708271	-0.2556929207008534	1.5282653899438914	-0.40260138423098646	-0.34858848952811816	1.5533060781926975	-0.4008680551061525	-0.23925377828003197	1.8737265844801354	-0.6189137577575019	-0.2527816283907032	1.7131801334577454	-0.6173330015546934													-0.2590096679441823	2.0506409792005598	-0.5767123938043989	-0.2121090862444702	2.115091548149382	-0.5745441374605169	-0.2743919759369751	2.046318009693707	-0.48837815963382425	-0.2809353651569683	1.9498161601982829	-0.4681773222341331	-0.2700245871609886	1.8724801074905546	-0.4342581612179706	-0.24130105633560225	2.05395258670838	-0.6648884545897542	-1.3084476278410389	1.871747963065635	0.41869095992423333	-0.21769291658825357	1.8792578398809143	-0.6797540169438219
16	0.5333333333333333	-0.2472629105136897	1.8666192572946871	-0.5591348653489087	-0.2598602404650628	1.8638759734024308	-0.4930841697979351	-0.2754558178016483	1.7136370110631178	-0.481855449191454	-0.29275629158682925	1.556563569451173	-0.4336830566168926	-0.24267631025563127	1.5227508975047683	-0.4285460692708271	-0.25601050666322345	1.5283788530654383	-0.4007582637235508	-0.34858848952811816	1.5533060781926975	-0.4008680551061525	-0.23955130675706227	1.8683155291013331	-0.6182052487726155	-0.25226174845444305	1.7129150202848091	-0.6157608008067467													-0.2589540247273484	2.050589078625208	-0.5767517491010308	-0.2120420570586517	2.116191661021168	-0.5743865118955795	-0.27433782355265685	2.0463070185543892	-0.48834325260311684	-0.27975503392523815	1.9513084511989187	-0.465090035669043	-0.2681208177852193	1.8750984223357408	-0.4367521720600406	-0.24127353797485243	2.0551533521935927	-0.6654140088276964	-1.3031759777450713	1.873426957923715	0.40853240480899594	-0.21769291658825357	1.8792578398809143	-0.6797540169438219
17	0.5666666666666667	-0.24797671835585056	1.8680992542657868	-0.5623981813454775	-0.25871900857535435	1.8647958338458746	-0.4901374485884286	-0.2749022978560307	1.7141538387799795	-0.4824259589421648	-0.29275629158682925	1.556563569451173	-0.4336830566168926	-0.24267631025563127	1.5227508975047683	-0.4285460692708271	-0.2556896381202081	1.5282268335888847	-0.39991192666101305	-0.34858848952811816	1.5533060781926975	-0.4008680551061525	-0.2373123550941041	1.869527983216257	-0.6207135950865422	-0.25293525145572976	1.7149267672651638	-0.6193405433293825													-0.25800933125417214	2.0518203167073166	-0.5742927824686814	-0.21288616415574205	2.1176284569977795	-0.5778577395922109	-0.2742649562591874	2.0463716104807044	-0.48829238718165324	-0.2788348169694633	1.9498324926884623	-0.4617605300652917	-0.2670966239294997	1.872298733200139	-0.4333650043156387	-0.24037899521551487	2.0550140112713375	-0.6625243021019607	-1.31038855602182	1.8734108310470186	0.4211830555834758	-0.21769291658825357	1.8792578398809143	-0.6797540169438219
